<svg width="744" height="689" viewBox="0 0 744 689" fill="none" xmlns="http://www.w3.org/2000/svg">
<g opacity="0.54">
<mask id="mask0_84_4100" style="mask-type:alpha" maskUnits="userSpaceOnUse" x="-133" y="-149" width="725" height="957">
<rect x="247.398" y="-148.343" width="382" height="877.334" transform="rotate(25.685 247.398 -148.343)" fill="url(#paint0_linear_84_4100)"/>
</mask>
<g mask="url(#mask0_84_4100)">
<g filter="url(#filter0_f_84_4100)">
<path fill-rule="evenodd" clip-rule="evenodd" d="M361.586 99.6118L313.355 254.328L126.355 620.828L223.371 406.059L361.586 99.6118Z" fill="url(#paint1_linear_84_4100)"/>
</g>
</g>
</g>
<g opacity="0.34">
<mask id="mask1_84_4100" style="mask-type:alpha" maskUnits="userSpaceOnUse" x="106" y="-122" width="690" height="958">
<rect x="106.375" y="24.9448" width="382" height="877.334" transform="rotate(-22.5402 106.375 24.9448)" fill="url(#paint2_linear_84_4100)"/>
</mask>
<g mask="url(#mask1_84_4100)">
<g filter="url(#filter1_f_84_4100)">
<path fill-rule="evenodd" clip-rule="evenodd" d="M367.359 104.979L450.611 244.021L599.355 627.643L503.818 412.212L367.359 104.979Z" fill="url(#paint3_linear_84_4100)"/>
</g>
</g>
</g>
<mask id="mask2_84_4100" style="mask-type:alpha" maskUnits="userSpaceOnUse" x="170" y="76" width="383" height="537">
<rect x="170.852" y="76.8281" width="382" height="536" fill="url(#paint4_linear_84_4100)"/>
</mask>
<g mask="url(#mask2_84_4100)">
<g filter="url(#filter2_f_84_4100)">
<path fill-rule="evenodd" clip-rule="evenodd" d="M377.759 120.828L412.85 402.328V631.828L377.758 393.328L377.759 120.828Z" fill="url(#paint5_linear_84_4100)"/>
</g>
</g>
<mask id="mask3_84_4100" style="mask-type:alpha" maskUnits="userSpaceOnUse" x="122" y="318" width="529" height="382">
<path opacity="0.5" d="M122.466 557.204C119.535 564.531 241.96 625.134 259.056 649.556C367.121 654.746 512.626 696.912 521.418 699.11C530.209 701.308 602.563 587.823 650.186 576.223C643.47 540.201 563.967 437.687 559.571 434.023C555.175 430.36 528.842 391.95 505.336 366.917C505.336 366.917 395.822 318.197 363.769 318.197C331.715 318.197 221.584 375.659 221.584 375.659C186.783 416.566 125.397 549.878 122.466 557.204Z" fill="url(#paint6_linear_84_4100)"/>
</mask>
<g mask="url(#mask3_84_4100)">
<ellipse cx="180.463" cy="481.04" rx="1.07654" ry="1.07654" transform="rotate(90 180.463 481.04)" fill="#EFF6FF"/>
<circle cx="320.236" cy="464.712" r="1.25596" transform="rotate(90 320.236 464.712)" fill="#EFF6FF"/>
<circle cx="193.026" cy="414.653" r="1.61481" transform="rotate(90 193.026 414.653)" fill="#EFF6FF"/>
<circle cx="268.743" cy="590.13" r="0.897116" transform="rotate(90 268.743 590.13)" fill="#EFF6FF"/>
<circle cx="258.158" cy="493.42" r="0.897116" transform="rotate(90 258.158 493.42)" fill="#EFF6FF"/>
<circle cx="353.611" cy="582.773" r="0.897116" transform="rotate(90 353.611 582.773)" fill="#EFF6FF"/>
<circle cx="235.728" cy="582.952" r="0.897116" transform="rotate(90 235.728 582.952)" fill="#EFF6FF"/>
<circle opacity="0.2" cx="336.923" cy="404.965" r="0.897116" transform="rotate(90 336.923 404.965)" fill="#EFF6FF"/>
<circle opacity="0.2" cx="364.017" cy="524.281" r="0.897116" transform="rotate(90 364.017 524.281)" fill="#EFF6FF"/>
<circle opacity="0.2" cx="297.806" cy="539.532" r="0.897116" transform="rotate(90 297.806 539.532)" fill="#EFF6FF"/>
<circle cx="193.744" cy="436.543" r="0.897116" transform="rotate(90 193.744 436.543)" fill="#EFF6FF"/>
<circle cx="200.923" cy="584.746" r="0.897116" transform="rotate(90 200.923 584.746)" fill="#EFF6FF"/>
<circle opacity="0.6" cx="306.243" cy="607.174" r="0.897116" transform="rotate(90 306.243 607.174)" fill="#EFF6FF"/>
<circle opacity="0.6" cx="310.908" cy="599.639" r="0.897116" transform="rotate(90 310.908 599.639)" fill="#EFF6FF"/>
<circle cx="222.087" cy="488.576" r="0.897116" transform="rotate(90 222.087 488.576)" fill="#EFF6FF"/>
<circle cx="304.267" cy="571.469" r="0.897116" transform="rotate(90 304.267 571.469)" fill="#EFF6FF"/>
<circle cx="262.283" cy="550.297" r="0.897116" transform="rotate(90 262.283 550.297)" fill="#EFF6FF"/>
<circle cx="251.697" cy="526.075" r="0.897116" transform="rotate(90 251.697 526.075)" fill="#EFF6FF"/>
<circle cx="205.408" cy="522.487" r="0.897116" transform="rotate(90 205.408 522.487)" fill="#EFF6FF"/>
<circle opacity="0.6" cx="175.259" cy="555.859" r="0.897116" transform="rotate(90 175.259 555.859)" fill="#EFF6FF"/>
<circle opacity="0.2" cx="159.29" cy="427.213" r="0.897116" transform="rotate(90 159.29 427.213)" fill="#EFF6FF"/>
<circle opacity="0.2" cx="369.579" cy="421.112" r="0.897116" transform="rotate(90 369.579 421.112)" fill="#EFF6FF"/>
<circle opacity="0.6" cx="232.134" cy="428.29" r="0.897116" transform="rotate(90 232.134 428.29)" fill="#EFF6FF"/>
<circle cx="336.923" cy="496.111" r="0.897116" transform="rotate(90 336.923 496.111)" fill="#EFF6FF"/>
<circle cx="252.057" cy="462.201" r="1.43539" transform="rotate(90 252.057 462.201)" fill="#EFF6FF"/>
<circle cx="372.447" cy="495.035" r="1.43539" transform="rotate(90 372.447 495.035)" fill="#EFF6FF"/>
<circle opacity="0.2" cx="302.47" cy="445.514" r="0.897116" transform="rotate(90 302.47 445.514)" fill="#EFF6FF"/>
<circle cx="312.165" cy="459.868" r="0.897116" transform="rotate(90 312.165 459.868)" fill="#EFF6FF"/>
<circle opacity="0.6" cx="260.306" cy="514.951" r="0.897116" transform="rotate(90 260.306 514.951)" fill="#EFF6FF"/>
<circle opacity="0.6" cx="348.767" cy="591.923" r="0.897116" transform="rotate(90 348.767 591.923)" fill="#EFF6FF"/>
<circle opacity="0.6" cx="351.814" cy="455.024" r="0.897116" transform="rotate(90 351.814 455.024)" fill="#EFF6FF"/>
<circle opacity="0.6" cx="164.494" cy="521.41" r="0.897116" transform="rotate(90 164.494 521.41)" fill="#EFF6FF"/>
<circle cx="146.915" cy="605.38" r="0.897116" transform="rotate(90 146.915 605.38)" fill="#EFF6FF"/>
<ellipse opacity="0.6" cx="231.424" cy="552.451" rx="1.43539" ry="1.43539" transform="rotate(90 231.424 552.451)" fill="#EFF6FF"/>
<circle cx="321.674" cy="541.865" r="1.43539" transform="rotate(90 321.674 541.865)" fill="#EFF6FF"/>
<circle cx="369.393" cy="563.036" r="1.43539" transform="rotate(90 369.393 563.036)" fill="#EFF6FF"/>
<circle cx="359.174" cy="590.488" r="1.43539" transform="rotate(90 359.174 590.488)" fill="#EFF6FF"/>
<circle cx="373.346" cy="405.862" r="1.43539" transform="rotate(90 373.346 405.862)" fill="#EFF6FF"/>
<circle cx="161.987" cy="514.233" r="1.61481" transform="rotate(90 161.987 514.233)" fill="#EFF6FF"/>
<circle opacity="0.2" cx="236.807" cy="611.66" r="1.61481" transform="rotate(90 236.807 611.66)" fill="#EFF6FF"/>
<ellipse opacity="0.2" cx="151.401" cy="447.847" rx="1.43539" ry="1.61481" transform="rotate(90 151.401 447.847)" fill="#EFF6FF"/>
<circle opacity="0.6" cx="309.651" cy="424.701" r="1.61481" transform="rotate(90 309.651 424.701)" fill="#EFF6FF"/>
<circle opacity="0.2" cx="199.486" cy="420.036" r="1.43539" transform="rotate(90 199.486 420.036)" fill="#EFF6FF"/>
<ellipse cx="387.158" cy="482.834" rx="1.07654" ry="1.07654" transform="rotate(90 387.158 482.834)" fill="#EFF6FF"/>
<circle cx="526.932" cy="466.506" r="1.25596" transform="rotate(90 526.932 466.506)" fill="#EFF6FF"/>
<circle cx="399.721" cy="416.447" r="1.61481" transform="rotate(90 399.721 416.447)" fill="#EFF6FF"/>
<circle cx="475.439" cy="591.923" r="0.897116" transform="rotate(90 475.439 591.923)" fill="#EFF6FF"/>
<circle cx="464.853" cy="495.214" r="0.897116" transform="rotate(90 464.853 495.214)" fill="#EFF6FF"/>
<circle cx="560.306" cy="584.567" r="0.897116" transform="rotate(90 560.306 584.567)" fill="#EFF6FF"/>
<circle cx="442.423" cy="584.746" r="0.897116" transform="rotate(90 442.423 584.746)" fill="#EFF6FF"/>
<circle opacity="0.2" cx="543.619" cy="406.758" r="0.897116" transform="rotate(90 543.619 406.758)" fill="#EFF6FF"/>
<circle opacity="0.2" cx="570.712" cy="526.075" r="0.897116" transform="rotate(90 570.712 526.075)" fill="#EFF6FF"/>
<circle opacity="0.2" cx="504.501" cy="541.326" r="0.897116" transform="rotate(90 504.501 541.326)" fill="#EFF6FF"/>
<circle cx="400.439" cy="438.337" r="0.897116" transform="rotate(90 400.439 438.337)" fill="#EFF6FF"/>
<circle cx="407.618" cy="586.54" r="0.897116" transform="rotate(90 407.618 586.54)" fill="#EFF6FF"/>
<circle opacity="0.6" cx="512.939" cy="608.968" r="0.897116" transform="rotate(90 512.939 608.968)" fill="#EFF6FF"/>
<circle opacity="0.6" cx="517.603" cy="601.433" r="0.897116" transform="rotate(90 517.603 601.433)" fill="#EFF6FF"/>
<circle cx="428.783" cy="490.37" r="0.897116" transform="rotate(90 428.783 490.37)" fill="#EFF6FF"/>
<circle cx="510.962" cy="573.263" r="0.897116" transform="rotate(90 510.962 573.263)" fill="#EFF6FF"/>
<circle cx="468.978" cy="552.091" r="0.897116" transform="rotate(90 468.978 552.091)" fill="#EFF6FF"/>
<circle cx="458.392" cy="527.869" r="0.897116" transform="rotate(90 458.392 527.869)" fill="#EFF6FF"/>
<circle cx="412.103" cy="524.281" r="0.897116" transform="rotate(90 412.103 524.281)" fill="#EFF6FF"/>
<circle opacity="0.6" cx="381.954" cy="557.653" r="0.897116" transform="rotate(90 381.954 557.653)" fill="#EFF6FF"/>
<circle opacity="0.2" cx="365.986" cy="429.007" r="0.897116" transform="rotate(90 365.986 429.007)" fill="#EFF6FF"/>
<circle opacity="0.2" cx="576.275" cy="422.906" r="0.897116" transform="rotate(90 576.275 422.906)" fill="#EFF6FF"/>
<circle opacity="0.6" cx="438.829" cy="430.084" r="0.897116" transform="rotate(90 438.829 430.084)" fill="#EFF6FF"/>
<circle cx="543.619" cy="497.905" r="0.897116" transform="rotate(90 543.619 497.905)" fill="#EFF6FF"/>
<circle cx="458.752" cy="463.994" r="1.43539" transform="rotate(90 458.752 463.994)" fill="#EFF6FF"/>
<circle cx="579.143" cy="496.829" r="1.43539" transform="rotate(90 579.143 496.829)" fill="#EFF6FF"/>
<circle opacity="0.2" cx="509.165" cy="447.308" r="0.897116" transform="rotate(90 509.165 447.308)" fill="#EFF6FF"/>
<circle cx="518.861" cy="461.662" r="0.897116" transform="rotate(90 518.861 461.662)" fill="#EFF6FF"/>
<circle opacity="0.6" cx="467.001" cy="516.745" r="0.897116" transform="rotate(90 467.001 516.745)" fill="#EFF6FF"/>
<circle opacity="0.6" cx="555.462" cy="593.717" r="0.897116" transform="rotate(90 555.462 593.717)" fill="#EFF6FF"/>
<circle opacity="0.6" cx="558.509" cy="456.818" r="0.897116" transform="rotate(90 558.509 456.818)" fill="#EFF6FF"/>
<circle opacity="0.6" cx="371.189" cy="523.204" r="0.897116" transform="rotate(90 371.189 523.204)" fill="#EFF6FF"/>
<circle cx="353.611" cy="607.174" r="0.897116" transform="rotate(90 353.611 607.174)" fill="#EFF6FF"/>
<ellipse opacity="0.6" cx="438.119" cy="554.244" rx="1.43539" ry="1.43539" transform="rotate(90 438.119 554.244)" fill="#EFF6FF"/>
<circle cx="528.369" cy="543.659" r="1.43539" transform="rotate(90 528.369 543.659)" fill="#EFF6FF"/>
<circle cx="576.088" cy="564.83" r="1.43539" transform="rotate(90 576.088 564.83)" fill="#EFF6FF"/>
<circle cx="565.869" cy="592.282" r="1.43539" transform="rotate(90 565.869 592.282)" fill="#EFF6FF"/>
<circle cx="580.041" cy="407.656" r="1.43539" transform="rotate(90 580.041 407.656)" fill="#EFF6FF"/>
<circle cx="368.682" cy="516.027" r="1.61481" transform="rotate(90 368.682 516.027)" fill="#EFF6FF"/>
<circle opacity="0.2" cx="443.502" cy="613.454" r="1.61481" transform="rotate(90 443.502 613.454)" fill="#EFF6FF"/>
<ellipse opacity="0.2" cx="358.096" cy="449.641" rx="1.43539" ry="1.61481" transform="rotate(90 358.096 449.641)" fill="#EFF6FF"/>
<circle opacity="0.6" cx="516.346" cy="426.495" r="1.61481" transform="rotate(90 516.346 426.495)" fill="#EFF6FF"/>
<circle opacity="0.2" cx="406.182" cy="421.83" r="1.43539" transform="rotate(90 406.182 421.83)" fill="#EFF6FF"/>
<circle cx="245.15" cy="381.28" r="0.897116" transform="rotate(90 245.15 381.28)" fill="#EFF6FF"/>
<circle cx="330.017" cy="373.923" r="0.897116" transform="rotate(90 330.017 373.923)" fill="#EFF6FF"/>
<circle cx="212.134" cy="374.103" r="0.897116" transform="rotate(90 212.134 374.103)" fill="#EFF6FF"/>
<circle opacity="0.2" cx="274.212" cy="330.683" r="0.897116" transform="rotate(90 274.212 330.683)" fill="#EFF6FF"/>
<circle cx="177.329" cy="375.897" r="0.897116" transform="rotate(90 177.329 375.897)" fill="#EFF6FF"/>
<circle opacity="0.6" cx="282.65" cy="398.325" r="0.897116" transform="rotate(90 282.65 398.325)" fill="#EFF6FF"/>
<circle opacity="0.6" cx="287.314" cy="390.789" r="0.897116" transform="rotate(90 287.314 390.789)" fill="#EFF6FF"/>
<circle cx="280.673" cy="362.62" r="0.897116" transform="rotate(90 280.673 362.62)" fill="#EFF6FF"/>
<circle cx="238.689" cy="341.448" r="0.897116" transform="rotate(90 238.689 341.448)" fill="#EFF6FF"/>
<circle opacity="0.6" cx="151.665" cy="347.01" r="0.897116" transform="rotate(90 151.665 347.01)" fill="#EFF6FF"/>
<circle opacity="0.6" cx="325.173" cy="383.074" r="0.897116" transform="rotate(90 325.173 383.074)" fill="#EFF6FF"/>
<circle cx="123.322" cy="396.531" r="0.897116" transform="rotate(90 123.322 396.531)" fill="#EFF6FF"/>
<ellipse opacity="0.6" cx="207.83" cy="343.601" rx="1.43539" ry="1.43539" transform="rotate(90 207.83 343.601)" fill="#EFF6FF"/>
<circle cx="298.08" cy="333.015" r="1.43539" transform="rotate(90 298.08 333.015)" fill="#EFF6FF"/>
<circle cx="345.799" cy="354.187" r="1.43539" transform="rotate(90 345.799 354.187)" fill="#EFF6FF"/>
<circle cx="335.58" cy="381.639" r="1.43539" transform="rotate(90 335.58 381.639)" fill="#EFF6FF"/>
<circle opacity="0.2" cx="213.213" cy="402.811" r="1.61481" transform="rotate(90 213.213 402.811)" fill="#EFF6FF"/>
<circle cx="491.408" cy="381.28" r="0.897116" transform="rotate(90 491.408 381.28)" fill="#EFF6FF"/>
<circle cx="576.275" cy="373.924" r="0.897116" transform="rotate(90 576.275 373.924)" fill="#EFF6FF"/>
<circle cx="458.392" cy="374.103" r="0.897116" transform="rotate(90 458.392 374.103)" fill="#EFF6FF"/>
<circle opacity="0.2" cx="520.47" cy="330.683" r="0.897116" transform="rotate(90 520.47 330.683)" fill="#EFF6FF"/>
<circle cx="423.587" cy="375.897" r="0.897116" transform="rotate(90 423.587 375.897)" fill="#EFF6FF"/>
<circle opacity="0.6" cx="528.908" cy="398.325" r="0.897116" transform="rotate(90 528.908 398.325)" fill="#EFF6FF"/>
<circle opacity="0.6" cx="533.572" cy="390.79" r="0.897116" transform="rotate(90 533.572 390.79)" fill="#EFF6FF"/>
<circle cx="526.931" cy="362.62" r="0.897116" transform="rotate(90 526.931 362.62)" fill="#EFF6FF"/>
<circle cx="484.947" cy="341.448" r="0.897116" transform="rotate(90 484.947 341.448)" fill="#EFF6FF"/>
<circle opacity="0.6" cx="397.923" cy="347.01" r="0.897116" transform="rotate(90 397.923 347.01)" fill="#EFF6FF"/>
<circle opacity="0.6" cx="571.431" cy="383.074" r="0.897116" transform="rotate(90 571.431 383.074)" fill="#EFF6FF"/>
<circle cx="369.579" cy="396.531" r="0.897116" transform="rotate(90 369.579 396.531)" fill="#EFF6FF"/>
<ellipse opacity="0.6" cx="454.088" cy="343.601" rx="1.43539" ry="1.43539" transform="rotate(90 454.088 343.601)" fill="#EFF6FF"/>
<circle cx="544.338" cy="333.015" r="1.43539" transform="rotate(90 544.338 333.015)" fill="#EFF6FF"/>
<circle cx="592.057" cy="354.187" r="1.43539" transform="rotate(90 592.057 354.187)" fill="#EFF6FF"/>
<circle cx="581.838" cy="381.639" r="1.43539" transform="rotate(90 581.838 381.639)" fill="#EFF6FF"/>
<circle opacity="0.2" cx="459.471" cy="402.811" r="1.61481" transform="rotate(90 459.471 402.811)" fill="#EFF6FF"/>
</g>
<mask id="mask4_84_4100" style="mask-type:alpha" maskUnits="userSpaceOnUse" x="-18" y="-74" width="595" height="947">
<rect x="206.992" y="-73.1719" width="382" height="877.334" transform="rotate(14.8247 206.992 -73.1719)" fill="url(#paint7_linear_84_4100)"/>
</mask>
<g mask="url(#mask4_84_4100)">
<g filter="url(#filter3_f_84_4100)">
<path fill-rule="evenodd" clip-rule="evenodd" d="M365.852 148.828L357.655 303.412L269.351 605.828L287.852 475.828L365.852 148.828Z" fill="url(#paint8_linear_84_4100)"/>
</g>
</g>
<mask id="mask5_84_4100" style="mask-type:alpha" maskUnits="userSpaceOnUse" x="69" y="55" width="610" height="617">
<rect x="69.8516" y="55.8281" width="609" height="616" fill="url(#paint9_linear_84_4100)"/>
</mask>
<g mask="url(#mask5_84_4100)">
<g filter="url(#filter4_f_84_4100)">
<path fill-rule="evenodd" clip-rule="evenodd" d="M377.762 171.573L460.852 396.927L525.852 558.328L460.602 477.627L395.352 396.927L351.352 574.328L326.465 434.551L195.852 605.328L222.352 504.328L377.762 171.573Z" fill="url(#paint10_linear_84_4100)"/>
</g>
</g>
<mask id="mask6_84_4100" style="mask-type:alpha" maskUnits="userSpaceOnUse" x="170" y="76" width="383" height="537">
<rect x="170.852" y="76.8281" width="382" height="536" fill="url(#paint11_linear_84_4100)"/>
</mask>
<g mask="url(#mask6_84_4100)">
<g filter="url(#filter5_f_84_4100)">
<path fill-rule="evenodd" clip-rule="evenodd" d="M377.761 120.828L473.339 350.572L484.852 467.828L449.124 409.2L412.852 531.328L370.852 359.328L289.738 548.328L304.625 427.285L260.352 467.828L250.795 428.378L211.852 467.828L377.761 120.828Z" fill="url(#paint12_linear_84_4100)"/>
</g>
</g>
<defs>
<filter id="filter0_f_84_4100" x="84.3594" y="57.6118" width="319.227" height="605.216" filterUnits="userSpaceOnUse" color-interpolation-filters="sRGB">
<feFlood flood-opacity="0" result="BackgroundImageFix"/>
<feBlend mode="normal" in="SourceGraphic" in2="BackgroundImageFix" result="shape"/>
<feGaussianBlur stdDeviation="21" result="effect1_foregroundBlur_84_4100"/>
</filter>
<filter id="filter1_f_84_4100" x="325.359" y="62.979" width="315.992" height="606.664" filterUnits="userSpaceOnUse" color-interpolation-filters="sRGB">
<feFlood flood-opacity="0" result="BackgroundImageFix"/>
<feBlend mode="normal" in="SourceGraphic" in2="BackgroundImageFix" result="shape"/>
<feGaussianBlur stdDeviation="21" result="effect1_foregroundBlur_84_4100"/>
</filter>
<filter id="filter2_f_84_4100" x="335.758" y="78.8281" width="119.094" height="595" filterUnits="userSpaceOnUse" color-interpolation-filters="sRGB">
<feFlood flood-opacity="0" result="BackgroundImageFix"/>
<feBlend mode="normal" in="SourceGraphic" in2="BackgroundImageFix" result="shape"/>
<feGaussianBlur stdDeviation="21" result="effect1_foregroundBlur_84_4100"/>
</filter>
<filter id="filter3_f_84_4100" x="227.352" y="106.828" width="180.5" height="541" filterUnits="userSpaceOnUse" color-interpolation-filters="sRGB">
<feFlood flood-opacity="0" result="BackgroundImageFix"/>
<feBlend mode="normal" in="SourceGraphic" in2="BackgroundImageFix" result="shape"/>
<feGaussianBlur stdDeviation="21" result="effect1_foregroundBlur_84_4100"/>
</filter>
<filter id="filter4_f_84_4100" x="90.8516" y="66.5732" width="540" height="643.755" filterUnits="userSpaceOnUse" color-interpolation-filters="sRGB">
<feFlood flood-opacity="0" result="BackgroundImageFix"/>
<feBlend mode="normal" in="SourceGraphic" in2="BackgroundImageFix" result="shape"/>
<feGaussianBlur stdDeviation="52.5" result="effect1_foregroundBlur_84_4100"/>
</filter>
<filter id="filter5_f_84_4100" x="153.852" y="62.8281" width="389" height="543.5" filterUnits="userSpaceOnUse" color-interpolation-filters="sRGB">
<feFlood flood-opacity="0" result="BackgroundImageFix"/>
<feBlend mode="normal" in="SourceGraphic" in2="BackgroundImageFix" result="shape"/>
<feGaussianBlur stdDeviation="29" result="effect1_foregroundBlur_84_4100"/>
</filter>
<linearGradient id="paint0_linear_84_4100" x1="427.898" y1="-95.1467" x2="559.646" y2="1184.56" gradientUnits="userSpaceOnUse">
<stop/>
<stop offset="1" stop-opacity="0"/>
</linearGradient>
<linearGradient id="paint1_linear_84_4100" x1="328.355" y1="136.828" x2="112.582" y2="521.886" gradientUnits="userSpaceOnUse">
<stop offset="0.98" stop-color="#BFDBFE"/>
<stop offset="1" stop-color="#3B82F6" stop-opacity="0.75"/>
</linearGradient>
<linearGradient id="paint2_linear_84_4100" x1="286.875" y1="78.1414" x2="418.622" y2="1357.85" gradientUnits="userSpaceOnUse">
<stop/>
<stop offset="1" stop-opacity="0"/>
</linearGradient>
<linearGradient id="paint3_linear_84_4100" x1="372.976" y1="154.555" x2="516.391" y2="571.999" gradientUnits="userSpaceOnUse">
<stop offset="0.98" stop-color="#BFDBFE"/>
<stop offset="1" stop-color="#3B82F6" stop-opacity="0.75"/>
</linearGradient>
<linearGradient id="paint4_linear_84_4100" x1="351.352" y1="109.328" x2="400.852" y2="896.328" gradientUnits="userSpaceOnUse">
<stop/>
<stop offset="1" stop-opacity="0"/>
</linearGradient>
<linearGradient id="paint5_linear_84_4100" x1="325.352" y1="166.828" x2="248.172" y2="505.662" gradientUnits="userSpaceOnUse">
<stop offset="0.7" stop-color="#BFDBFE"/>
<stop offset="1" stop-color="#3B82F6" stop-opacity="0.75"/>
</linearGradient>
<linearGradient id="paint6_linear_84_4100" x1="386.296" y1="297.513" x2="386.296" y2="636.721" gradientUnits="userSpaceOnUse">
<stop stop-color="#D9D9D9"/>
<stop offset="1" stop-color="#737373" stop-opacity="0"/>
</linearGradient>
<linearGradient id="paint7_linear_84_4100" x1="387.492" y1="-19.9753" x2="519.239" y2="1259.73" gradientUnits="userSpaceOnUse">
<stop/>
<stop offset="1" stop-opacity="0"/>
</linearGradient>
<linearGradient id="paint8_linear_84_4100" x1="333.322" y1="53.3637" x2="172.017" y2="361.172" gradientUnits="userSpaceOnUse">
<stop offset="0.7" stop-color="#BFDBFE"/>
<stop offset="1" stop-color="#3B82F6" stop-opacity="0.75"/>
</linearGradient>
<linearGradient id="paint9_linear_84_4100" x1="321.742" y1="599.828" x2="321.742" y2="233.328" gradientUnits="userSpaceOnUse">
<stop/>
<stop offset="1" stop-opacity="0"/>
</linearGradient>
<linearGradient id="paint10_linear_84_4100" x1="204.604" y1="219.913" x2="267.685" y2="420.931" gradientUnits="userSpaceOnUse">
<stop stop-color="#BFDBFE"/>
<stop offset="1" stop-color="#3B82F6" stop-opacity="0.75"/>
</linearGradient>
<linearGradient id="paint11_linear_84_4100" x1="361.852" y1="287.828" x2="361.852" y2="527.828" gradientUnits="userSpaceOnUse">
<stop/>
<stop offset="1" stop-opacity="0"/>
</linearGradient>
<linearGradient id="paint12_linear_84_4100" x1="204.604" y1="170.11" x2="269.936" y2="374.323" gradientUnits="userSpaceOnUse">
<stop stop-color="#BFDBFE"/>
<stop offset="1" stop-color="#3B82F6" stop-opacity="0.75"/>
</linearGradient>
</defs>
</svg>
